<svg width="64" height="64" viewBox="0 0 64 64" fill="none" xmlns="http://www.w3.org/2000/svg">
  <rect width="64" height="64" rx="16" fill="#0f172a"/>
  <rect x="6" y="6" width="52" height="52" rx="13" fill="#111827" stroke="#7c3aed" stroke-width="3"/>
  
  <path
    d="M20 36C17.7909 36 16 34.2091 16 32C16 29.7909 17.7909 28 20 28H44C46.2091 28 48 29.7909 48 32C48 34.2091 46.2091 36 44 36H41.5L38.5 40H25.5L22.5 36H20Z"
    fill="#7c3aed"
  />
  
  <path d="M24 30V34" stroke="#f8fafc" stroke-width="2" stroke-linecap="round"/>
  <path d="M22 32H26" stroke="#f8fafc" stroke-width="2" stroke-linecap="round"/>
  
  <circle cx="39" cy="31" r="1.7" fill="#38bdf8"/>
  <circle cx="43" cy="34" r="1.7" fill="#38bdf8"/>
  
  <path
    d="M29 18H35V40H29V18Z"
    fill="#f8fafc"
    opacity="0.95"
  />
  <path
    d="M35 35H43V40H35V35Z"
    fill="#f8fafc"
    opacity="0.95"
  />
</svg>